<svg width="18" height="16" viewBox="0 0 21 19" fill="none" xmlns="http://www.w3.org/2000/svg">
<g id="Camera">
<path id="Stroke 1" fill-rule="evenodd" clip-rule="evenodd" d="M13.5026 1.23208C14.5385 1.64439 14.8554 3.08029 15.279 3.54183C15.7026 4.00336 16.3087 4.16029 16.6441 4.16029C18.4267 4.16029 19.8718 5.60542 19.8718 7.38695V13.3305C19.8718 15.7203 17.9334 17.6587 15.5436 17.6587H5.22567C2.8349 17.6587 0.897461 15.7203 0.897461 13.3305V7.38695C0.897461 5.60542 2.34259 4.16029 4.12515 4.16029C4.45951 4.16029 5.06567 4.00336 5.49028 3.54183C5.91387 3.08029 6.22977 1.64439 7.26567 1.23208C8.30259 0.819775 12.4667 0.819775 13.5026 1.23208Z" stroke="white" stroke-width="1.5" stroke-linecap="round" stroke-linejoin="round"/>
<path id="Stroke 13" d="M16.0209 6.82044H16.0301" stroke="white" stroke-width="2" stroke-linecap="round" stroke-linejoin="round"/>
<path id="Stroke 5" fill-rule="evenodd" clip-rule="evenodd" d="M13.6448 10.5418C13.6448 8.74074 12.1853 7.28125 10.3843 7.28125C8.58327 7.28125 7.12378 8.74074 7.12378 10.5418C7.12378 12.3428 8.58327 13.8023 10.3843 13.8023C12.1853 13.8023 13.6448 12.3428 13.6448 10.5418Z" stroke="white" stroke-width="1.5" stroke-linecap="round" stroke-linejoin="round"/>
</g>
</svg>
