<svg width="91" height="11" viewBox="0 0 91 11" fill="none" xmlns="http://www.w3.org/2000/svg">
<path d="M0.958807 10V1.27273H2.27557V5.06534H6.62642V1.27273H7.94744V10H6.62642V6.1946H2.27557V10H0.958807ZM12.5799 10.1321C11.9663 10.1321 11.4307 9.99148 10.9734 9.71023C10.516 9.42898 10.1609 9.03551 9.90801 8.52983C9.65517 8.02415 9.52875 7.43324 9.52875 6.7571C9.52875 6.07812 9.65517 5.48437 9.90801 4.97585C10.1609 4.46733 10.516 4.07244 10.9734 3.79119C11.4307 3.50994 11.9663 3.36932 12.5799 3.36932C13.1935 3.36932 13.729 3.50994 14.1864 3.79119C14.6438 4.07244 14.9989 4.46733 15.2518 4.97585C15.5046 5.48437 15.631 6.07812 15.631 6.7571C15.631 7.43324 15.5046 8.02415 15.2518 8.52983C14.9989 9.03551 14.6438 9.42898 14.1864 9.71023C13.729 9.99148 13.1935 10.1321 12.5799 10.1321ZM12.5841 9.0625C12.9819 9.0625 13.3114 8.95739 13.5728 8.74716C13.8341 8.53693 14.0273 8.2571 14.1523 7.90767C14.2802 7.55824 14.3441 7.1733 14.3441 6.75284C14.3441 6.33523 14.2802 5.9517 14.1523 5.60227C14.0273 5.25 13.8341 4.96733 13.5728 4.75426C13.3114 4.54119 12.9819 4.43466 12.5841 4.43466C12.1836 4.43466 11.8512 4.54119 11.587 4.75426C11.3256 4.96733 11.131 5.25 11.0032 5.60227C10.8782 5.9517 10.8157 6.33523 10.8157 6.75284C10.8157 7.1733 10.8782 7.55824 11.0032 7.90767C11.131 8.2571 11.3256 8.53693 11.587 8.74716C11.8512 8.95739 12.1836 9.0625 12.5841 9.0625ZM17.1133 10V3.45455H18.3448V4.49432H18.413C18.5323 4.14205 18.7425 3.86506 19.0437 3.66335C19.3476 3.45881 19.6914 3.35653 20.0749 3.35653C20.1544 3.35653 20.2482 3.35937 20.3562 3.36506C20.4669 3.37074 20.5536 3.37784 20.6161 3.38636V4.60511C20.565 4.59091 20.474 4.57528 20.3434 4.55824C20.2127 4.53835 20.082 4.52841 19.9513 4.52841C19.6502 4.52841 19.3817 4.59233 19.1459 4.72017C18.913 4.84517 18.7283 5.01989 18.5919 5.24432C18.4556 5.46591 18.3874 5.71875 18.3874 6.00284V10H17.1133ZM21.7787 10V3.45455H23.0103V4.49432H23.0784C23.1978 4.14205 23.408 3.86506 23.7091 3.66335C24.0131 3.45881 24.3568 3.35653 24.7404 3.35653C24.8199 3.35653 24.9137 3.35937 25.0216 3.36506C25.1324 3.37074 25.2191 3.37784 25.2816 3.38636V4.60511C25.2304 4.59091 25.1395 4.57528 25.0088 4.55824C24.8782 4.53835 24.7475 4.52841 24.6168 4.52841C24.3157 4.52841 24.0472 4.59233 23.8114 4.72017C23.5784 4.84517 23.3938 5.01989 23.2574 5.24432C23.1211 5.46591 23.0529 5.71875 23.0529 6.00284V10H21.7787ZM28.9669 10.1321C28.3533 10.1321 27.8178 9.99148 27.3604 9.71023C26.903 9.42898 26.5479 9.03551 26.295 8.52983C26.0422 8.02415 25.9158 7.43324 25.9158 6.7571C25.9158 6.07812 26.0422 5.48437 26.295 4.97585C26.5479 4.46733 26.903 4.07244 27.3604 3.79119C27.8178 3.50994 28.3533 3.36932 28.9669 3.36932C29.5806 3.36932 30.1161 3.50994 30.5735 3.79119C31.0308 4.07244 31.386 4.46733 31.6388 4.97585C31.8916 5.48437 32.0181 6.07812 32.0181 6.7571C32.0181 7.43324 31.8916 8.02415 31.6388 8.52983C31.386 9.03551 31.0308 9.42898 30.5735 9.71023C30.1161 9.99148 29.5806 10.1321 28.9669 10.1321ZM28.9712 9.0625C29.3689 9.0625 29.6985 8.95739 29.9598 8.74716C30.2212 8.53693 30.4144 8.2571 30.5394 7.90767C30.6672 7.55824 30.7311 7.1733 30.7311 6.75284C30.7311 6.33523 30.6672 5.9517 30.5394 5.60227C30.4144 5.25 30.2212 4.96733 29.9598 4.75426C29.6985 4.54119 29.3689 4.43466 28.9712 4.43466C28.5706 4.43466 28.2382 4.54119 27.974 4.75426C27.7127 4.96733 27.5181 5.25 27.3902 5.60227C27.2652 5.9517 27.2027 6.33523 27.2027 6.75284C27.2027 7.1733 27.2652 7.55824 27.3902 7.90767C27.5181 8.2571 27.7127 8.53693 27.974 8.74716C28.2382 8.95739 28.5706 9.0625 28.9712 9.0625ZM33.5003 10V3.45455H34.7318V4.49432H34.8C34.9193 4.14205 35.1295 3.86506 35.4307 3.66335C35.7347 3.45881 36.0784 3.35653 36.4619 3.35653C36.5415 3.35653 36.6352 3.35937 36.7432 3.36506C36.854 3.37074 36.9406 3.37784 37.0031 3.38636V4.60511C36.952 4.59091 36.8611 4.57528 36.7304 4.55824C36.5997 4.53835 36.469 4.52841 36.3384 4.52841C36.0372 4.52841 35.7687 4.59233 35.533 4.72017C35.3 4.84517 35.1153 5.01989 34.979 5.24432C34.8426 5.46591 34.7744 5.71875 34.7744 6.00284V10H33.5003ZM43.724 7.51136C43.3802 7.51136 43.0663 7.42756 42.7822 7.25994C42.4981 7.08949 42.2709 6.86222 42.1004 6.57812C41.9328 6.29403 41.849 5.98011 41.849 5.63636C41.849 5.28977 41.9328 4.97585 42.1004 4.6946C42.2709 4.41051 42.4981 4.18466 42.7822 4.01705C43.0663 3.84659 43.3802 3.76136 43.724 3.76136C44.0706 3.76136 44.3845 3.84659 44.6657 4.01705C44.9498 4.18466 45.1757 4.41051 45.3433 4.6946C45.5137 4.97585 45.599 5.28977 45.599 5.63636C45.599 5.98011 45.5137 6.29403 45.3433 6.57812C45.1757 6.86222 44.9498 7.08949 44.6657 7.25994C44.3845 7.42756 44.0706 7.51136 43.724 7.51136ZM50.7208 2.40625V1.27273H57.475V2.40625H54.752V10H53.4395V2.40625H50.7208ZM60.1994 6.11364V10H58.9253V1.27273H60.1824V4.51989H60.2634C60.4168 4.16761 60.6511 3.88778 60.9665 3.6804C61.2818 3.47301 61.6937 3.36932 62.2023 3.36932C62.6511 3.36932 63.0432 3.46165 63.3784 3.64631C63.7165 3.83097 63.9778 4.10653 64.1625 4.47301C64.35 4.83665 64.4437 5.29119 64.4437 5.83665V10H63.1696V5.99006C63.1696 5.50994 63.046 5.13778 62.7989 4.87358C62.5517 4.60653 62.208 4.47301 61.7676 4.47301C61.4665 4.47301 61.1966 4.53693 60.958 4.66477C60.7222 4.79261 60.5361 4.98011 60.3997 5.22727C60.2662 5.47159 60.1994 5.76705 60.1994 6.11364ZM66.204 10V3.45455H67.4356V4.49432H67.5038C67.6231 4.14205 67.8333 3.86506 68.1344 3.66335C68.4384 3.45881 68.7822 3.35653 69.1657 3.35653C69.2452 3.35653 69.339 3.35937 69.4469 3.36506C69.5577 3.37074 69.6444 3.37784 69.7069 3.38636V4.60511C69.6557 4.59091 69.5648 4.57528 69.4342 4.55824C69.3035 4.53835 69.1728 4.52841 69.0421 4.52841C68.741 4.52841 68.4725 4.59233 68.2367 4.72017C68.0038 4.84517 67.8191 5.01989 67.6827 5.24432C67.5464 5.46591 67.4782 5.71875 67.4782 6.00284V10H66.204ZM70.8695 10V3.45455H72.1437V10H70.8695ZM71.513 2.4446C71.2914 2.4446 71.101 2.37074 70.9419 2.22301C70.7857 2.07244 70.7076 1.89347 70.7076 1.68608C70.7076 1.47585 70.7857 1.29687 70.9419 1.14915C71.101 0.998579 71.2914 0.923295 71.513 0.923295C71.7346 0.923295 71.9235 0.998579 72.0797 1.14915C72.2388 1.29687 72.3184 1.47585 72.3184 1.68608C72.3184 1.89347 72.2388 2.07244 72.0797 2.22301C71.9235 2.37074 71.7346 2.4446 71.513 2.4446ZM75.1919 1.27273V10H73.9178V1.27273H75.1919ZM78.2402 1.27273V10H76.9661V1.27273H78.2402ZM82.8354 10.1321C82.1905 10.1321 81.6351 9.99432 81.1692 9.71875C80.7061 9.44034 80.3482 9.04972 80.0953 8.54688C79.8453 8.04119 79.7203 7.44886 79.7203 6.76989C79.7203 6.09943 79.8453 5.50852 80.0953 4.99716C80.3482 4.4858 80.7004 4.08665 81.1521 3.79972C81.6067 3.51278 82.1379 3.36932 82.7459 3.36932C83.1152 3.36932 83.4732 3.4304 83.8197 3.55256C84.1663 3.67472 84.4774 3.86648 84.753 4.12784C85.0286 4.3892 85.2459 4.72869 85.405 5.14631C85.5641 5.56108 85.6436 6.06534 85.6436 6.65909V7.1108H80.4405V6.15625H84.395C84.395 5.82102 84.3268 5.52415 84.1905 5.26562C84.0541 5.00426 83.8624 4.7983 83.6152 4.64773C83.3709 4.49716 83.084 4.42188 82.7544 4.42188C82.3965 4.42188 82.084 4.50994 81.8169 4.68608C81.5527 4.85937 81.3482 5.08665 81.2033 5.3679C81.0612 5.64631 80.9902 5.94886 80.9902 6.27557V7.02131C80.9902 7.45881 81.0669 7.83097 81.2203 8.13778C81.3766 8.4446 81.5939 8.67898 81.8723 8.84091C82.1507 9 82.476 9.07955 82.8482 9.07955C83.0896 9.07955 83.3098 9.04545 83.5087 8.97727C83.7075 8.90625 83.8794 8.80114 84.0243 8.66193C84.1692 8.52273 84.28 8.35085 84.3567 8.14631L85.5626 8.36364C85.4661 8.71875 85.2928 9.02983 85.0428 9.29688C84.7956 9.56108 84.4845 9.76705 84.1095 9.91477C83.7374 10.0597 83.3126 10.1321 82.8354 10.1321ZM87.1173 10V3.45455H88.3488V4.49432H88.417C88.5363 4.14205 88.7466 3.86506 89.0477 3.66335C89.3517 3.45881 89.6954 3.35653 90.079 3.35653C90.1585 3.35653 90.2523 3.35937 90.3602 3.36506C90.471 3.37074 90.5577 3.37784 90.6202 3.38636V4.60511C90.569 4.59091 90.4781 4.57528 90.3474 4.55824C90.2167 4.53835 90.0861 4.52841 89.9554 4.52841C89.6542 4.52841 89.3858 4.59233 89.15 4.72017C88.917 4.84517 88.7324 5.01989 88.596 5.24432C88.4596 5.46591 88.3915 5.71875 88.3915 6.00284V10H87.1173Z" fill="#78828A"/>
</svg>
