<svg width="24" height="24" viewBox="0 0 24 24" fill="none" xmlns="http://www.w3.org/2000/svg">
<path d="M20.6004 11.9999C20.6004 16.7496 16.75 20.5999 12.0004 20.5999C7.25074 20.5999 3.40039 16.7496 3.40039 11.9999C3.40039 7.25025 7.25074 3.3999 12.0004 3.3999C16.75 3.3999 20.6004 7.25025 20.6004 11.9999ZM12.0207 7.76939C11.3456 7.31934 10.4776 7.27738 9.7623 7.66022C9.04696 8.04306 8.60039 8.78855 8.60039 9.5999V14.3999C8.60039 15.2113 9.04696 15.9567 9.7623 16.3396C10.4776 16.7224 11.3456 16.6805 12.0207 16.2304L15.6207 13.8304C16.2328 13.4224 16.6004 12.7355 16.6004 11.9999C16.6004 11.2643 16.2328 10.5774 15.6207 10.1694L12.0207 7.76939Z" fill="white" stroke="white" stroke-width="2"/>
</svg>
