<svg width="112" height="56" viewBox="0 0 112 56" fill="none" xmlns="http://www.w3.org/2000/svg">
<path fill-rule="evenodd" clip-rule="evenodd" d="M4.94092 12.999H25.8795V43.0007H4.94092V12.999ZM7.95887 39.9805H22.8511V16.0205H7.95887V39.9805Z" fill="#FFCD1A"/>
<path fill-rule="evenodd" clip-rule="evenodd" d="M39.7882 26.4593H38.493C36.7917 24.0561 35.1044 21.668 33.4194 18.969H33.4071V26.4593H31.9755V16.0156H33.2718C34.9731 18.4019 36.6581 20.7732 38.3274 23.4582H38.3571V16.0156H39.7888V26.4593H39.7882ZM43.1914 22.3257C43.6068 20.9527 44.0252 19.6849 44.3988 18.0731H44.429C44.8462 19.6849 45.2198 20.9533 45.6074 22.3257H43.1914ZM43.8758 16.0156L40.2676 26.4593H41.8189L42.7265 23.6087H45.8764L46.6962 26.4593H48.6968L45.3686 16.0156H43.8758ZM50.3812 26.4593V17.4165H47.6352V16.0156H54.9151V17.4165H52.1714V26.4593H50.3812ZM55.4956 16.0156H57.2736V26.4593H55.4956V16.0156ZM62.7935 25.1444C60.9266 25.1444 60.2706 23.0857 60.2706 21.0864C60.2706 19.1625 61.0161 17.327 62.7935 17.327C64.5686 17.327 65.3118 19.1625 65.3118 21.0864C65.3118 23.0857 64.6569 25.1444 62.7935 25.1444ZM62.7935 26.6359C65.5227 26.6359 67.2228 24.2054 67.2228 21.0858C67.2228 18.1625 65.3461 15.8354 62.7935 15.8354C60.2433 15.8354 58.3584 18.1625 58.3584 21.0858C58.359 24.206 60.062 26.6359 62.7935 26.6359ZM76.1291 26.4593H74.8322C73.1297 24.0561 71.4435 21.668 69.7597 18.969H69.7451V26.4593H68.3152V16.0156H69.6121C71.3111 18.4019 72.9973 20.7732 74.6654 23.4582H74.6962V16.0156H76.1297V26.4593H76.1291ZM79.5305 22.3257C79.9495 20.9527 80.3649 19.6849 80.7403 18.0731H80.7699C81.1877 19.6849 81.5596 20.9533 81.9465 22.3257H79.5305ZM80.2185 16.0156L76.6085 26.4593H78.161L79.0686 23.6087H82.2179L83.0383 26.4593H85.0365L81.7089 16.0156H80.2185ZM85.5566 16.0156H87.3351V25.0561H90.8691V26.4593H85.5566V16.0156ZM38.6877 35.1947V39.5049C37.7319 39.8797 36.7319 40.1464 35.7203 40.1464C32.646 40.1464 30.707 37.7595 30.707 34.6857C30.707 31.8351 32.646 29.3448 35.779 29.3448C36.747 29.3448 37.7173 29.7044 38.3147 30.1512L37.7325 31.3895C37.256 31.0937 36.5082 30.8398 35.8231 30.8398C33.915 30.8398 32.6158 32.347 32.6158 34.7194C32.6158 37.1941 34.1085 38.6549 35.6453 38.6549C36.1206 38.6549 36.5256 38.5979 36.9004 38.4021V35.1947H38.6877ZM45.0908 30.9293H42.1037V33.7921H45.0275V35.1947H42.1037V38.5642H45.6242V39.9686H40.3123V29.5243H45.0908V30.9293ZM50.6102 38.6543C48.7433 38.6543 48.0861 36.5974 48.0861 34.5968C48.0861 32.6741 48.8322 30.8392 50.6102 30.8392C52.3841 30.8392 53.1284 32.6741 53.1284 34.5968C53.1284 36.5974 52.4707 38.6543 50.6102 38.6543ZM50.6102 40.1464C53.3388 40.1464 55.0383 37.7147 55.0383 34.5962C55.0383 31.673 53.1598 29.3442 50.6102 29.3442C48.0559 29.3442 46.1785 31.673 46.1785 34.5962C46.1779 37.7153 47.8758 40.1464 50.6102 40.1464ZM63.6302 35.1947V39.5049C62.6744 39.8797 61.6773 40.1464 60.6617 40.1464C57.5897 40.1464 55.649 37.7595 55.649 34.6857C55.649 31.8351 57.5897 29.3448 60.7227 29.3448C61.693 29.3448 62.661 29.7044 63.2566 30.1512L62.6744 31.3895C62.1968 31.0937 61.4554 30.8398 60.768 30.8398C58.8558 30.8398 57.5577 32.347 57.5577 34.7194C57.5577 37.1941 59.051 38.6549 60.5879 38.6549C61.0667 38.6549 61.4676 38.5979 61.8418 38.4021V35.1947H63.6302ZM67.0654 30.9293H67.8538C68.9102 30.9293 69.5087 31.5382 69.5087 32.6137C69.5087 34.0146 68.6598 34.6404 67.8085 34.6851C67.629 34.7032 67.2106 34.7183 67.0654 34.731V30.9293ZM71.5993 39.9686L69.4918 35.6439C70.6405 35.0338 71.3006 33.7921 71.3006 32.5388C71.3006 30.508 70.0601 29.5243 68.0607 29.5243H65.2711V39.9686H67.0654V36.0303H67.8701L69.5528 39.9686H71.5993ZM74.5521 35.8356C74.9688 34.4609 75.3865 33.1942 75.7607 31.5829H75.7903C76.2081 33.1942 76.58 34.4609 76.9681 35.8356H74.5521ZM75.2372 29.5243L71.626 39.9686H73.1774L74.0885 37.118H77.2377L78.0535 39.9686H80.0564L76.7276 29.5243H75.2372ZM83.4119 29.5243H80.6223V39.9686H82.4131V36.0303H83.2167C85.3514 36.0303 86.6507 34.2993 86.6507 32.5388C86.6507 30.5074 85.4113 29.5243 83.4119 29.5243ZM83.1609 34.6857C82.975 34.7026 82.538 34.7165 82.4131 34.7287V30.9293H83.2167C84.2608 30.9293 84.8599 31.5382 84.8599 32.6137C84.8599 34.0146 84.0121 34.641 83.1609 34.6857ZM94.9439 39.9686H93.1543V34.9426H89.4368V39.9686H87.6663V29.5243H89.4368V33.5376H93.1543V29.5539H94.9439V39.9686ZM96.658 29.5243H98.4372V39.9686H96.658V29.5243ZM106.49 31.4203C106.056 31.1512 105.343 30.8392 104.654 30.8392C102.831 30.8392 101.508 32.3464 101.508 34.7188C101.508 37.1935 102.969 38.6543 104.7 38.6543C105.334 38.6513 105.954 38.4701 106.49 38.1313L106.984 39.4305C106.443 39.803 105.492 40.1464 104.628 40.1464C101.553 40.1464 99.6126 37.7595 99.6126 34.6857C99.6126 31.8351 101.536 29.3448 104.654 29.3448C105.581 29.3448 106.443 29.7352 107.059 30.1512L106.49 31.4203Z" fill="#F9F9F9"/>
</svg>
