<svg width="96" height="96" viewBox="0 0 96 96" fill="none" xmlns="http://www.w3.org/2000/svg">
<path fill-rule="evenodd" clip-rule="evenodd" d="M2.82324 40.448V46.7482H21.2522C23.3942 46.7482 26.131 44.7675 26.131 41.4909C26.131 40.1731 26.635 39.3134 25.0861 37.5703L22.7289 34.7773C21.3782 33.5173 22.8902 33.5173 24.0248 33.5173H31.8056V46.7482H37.9763V33.5173H46.2931V27.8511H19.3621C16.0855 27.8511 14.4833 30.9972 14.5735 32.6352C14.6641 34.2733 14.9654 36.3342 17.6882 38.8099C20.1719 41.0675 16.4586 40.448 16.0855 40.448H2.82324ZM59.9379 27.8511H49.9831L44.4025 46.7487H50.6131L51.6206 44.1026H58.1728L59.1455 46.7487H65.229L59.9379 27.8511ZM53.0071 39.566L55.1492 32.6352L57.1658 39.566H53.0071ZM84.8871 40.448C82.493 40.448 82.493 39.566 82.493 39.566C84.5445 39.566 86.3633 36.5772 86.3633 33.5173C86.3633 30.4573 83.3751 27.8511 80.98 27.8511H67.5872V46.7487H74.3924V40.4485C74.3924 40.4485 77.29 43.8506 78.8021 45.2366C80.3146 46.6227 80.4401 46.7487 82.4925 46.7487H93.175V40.4485C93.176 40.448 87.2812 40.448 84.8871 40.448ZM78.7124 36.0378H74.3934V32.6352H78.7124C80.6926 32.6352 81.0353 36.0378 78.7124 36.0378ZM2.82324 49.1423H9.78533L11.5494 55.4434L13.1874 49.1423H20.4962L22.3862 55.4434L24.2768 49.1423H30.325L24.7803 68.0443H19.2361L16.8067 59.0971L14.0695 68.0443H8.39929L2.82324 49.1423ZM44.6132 49.2513H34.6584L29.0784 68.1484H35.2884L36.2964 65.5028H42.8491L43.8218 68.1484H49.9059L44.6132 49.2513ZM37.683 60.9657L39.8251 54.035L41.8411 60.9657H37.683ZM85.0126 54.8134C83.8796 54.8134 82.6439 54.9459 83.9951 56.2054L86.3528 58.9989C87.9013 60.7421 87.8764 61.4687 87.8764 62.7875C87.8764 66.0636 84.6351 68.0443 82.493 68.0443L67.6037 68.1444C65.5522 68.1444 65.4267 68.0189 63.9142 66.6329C62.4027 65.2469 59.5041 61.8442 59.5041 61.8442V68.1444H52.6999V49.2473H66.0926C68.4867 49.2473 71.4759 51.8541 71.4759 54.9135C71.4759 57.974 69.6571 60.9622 67.6047 60.9622C67.6047 60.9622 68.5071 61.8696 70.0192 61.8696C71.5317 61.8696 77.3538 61.8756 77.3538 61.8756C77.7263 61.8756 81.4392 62.4952 78.956 60.2376C76.2332 57.7618 75.9319 55.7019 75.8412 54.0639C75.7506 52.4258 77.167 49.1427 80.4421 49.1427H93.177V54.8139H85.0126V54.8134ZM63.8236 57.4336H59.5036V54.031H63.8236C65.8043 54.031 66.1464 57.4336 63.8236 57.4336Z" fill="#F9F9F9"/>
</svg>
